<?xml version="1.0" encoding="utf-8"?>
<!-- Generator: Adobe Illustrator 27.4.0, SVG Export Plug-In . SVG Version: 6.00 Build 0)  -->
<svg version="1.1" id="Layer_1" xmlns="http://www.w3.org/2000/svg" xmlns:xlink="http://www.w3.org/1999/xlink" x="0px" y="0px"
	 viewBox="0 0 110.5 212.5" style="enable-background:new 0 0 110.5 212.5;" xml:space="preserve">
<style type="text/css">
	.st0{fill:url(#SVGID_1_);}
	.st1{fill:url(#SVGID_00000181805430848712727360000006245866548720408705_);}
	.st2{fill:url(#SVGID_00000124144897249641989890000015499458822133559687_);}
	.st3{fill:url(#SVGID_00000062886720375386490000000017362762906444840123_);}
</style>
<g>
	
		<linearGradient id="SVGID_1_" gradientUnits="userSpaceOnUse" x1="68.8783" y1="-202.4018" x2="180.3217" y2="-202.4018" gradientTransform="matrix(1 0 0 -1 -69.34 -150.508)">
		<stop  offset="0" style="stop-color:#F2BE4E"/>
		<stop  offset="1" style="stop-color:#459CDD"/>
	</linearGradient>
	<path class="st0" d="M53.6,65.1C53.6,65.1,53.6,65.1,53.6,65.1c0.8,1.8,3.2,1.8,4,0.1c0-0.1,0.1-0.1,0.1-0.2
		c0.7-1.6,1.5-3.2,2.3-4.7L90.2,4.5c0.4-0.7,0.8-1.3,1.2-1.7c0.4-0.4,0.8-0.7,1.3-0.9c0.5-0.2,1-0.3,1.7-0.3
		c0.6-0.1,1.3-0.1,2.2-0.1h12.2c1.2,0,2.2,1,2.2,2.1v96.6c0,1.2-1,2.1-2.2,2.1H95.7c-1.2,0-2.2-1-2.2-2.1V37.1c0-1.2,0-2.5,0.1-4
		c0.1-1.4,0.2-2.9,0.3-4.4L63.2,86c-0.7,1.3-1.6,2.3-2.7,3c-1.1,0.7-2.4,1.1-3.9,1.1h-2.6c-1.5,0-2.8-0.4-3.9-1.1
		c-1.1-0.7-2-1.7-2.7-3L16,28.5c0.2,1.5,0.3,3,0.4,4.5c0.1,1.5,0.1,2.8,0.1,4.1v63.1c0,1.2-1,2.1-2.2,2.1H2.2c-1.2,0-2.2-1-2.2-2.1
		V3.6c0-1.2,1-2.1,2.2-2.1h12.2c0.8,0,1.6,0,2.2,0.1c0.6,0.1,1.2,0.2,1.7,0.3c0.5,0.2,1,0.5,1.4,0.9c0.4,0.4,0.8,1,1.2,1.7l30.6,56
		C52.2,62,53,63.5,53.6,65.1L53.6,65.1z"/>
	
		<linearGradient id="SVGID_00000018236648016119963240000011223118120312263554_" gradientUnits="userSpaceOnUse" x1="68.8783" y1="-311.0621" x2="180.3217" y2="-311.0621" gradientTransform="matrix(1 0 0 -1 -69.34 -150.508)">
		<stop  offset="0" style="stop-color:#F2BE4E"/>
		<stop  offset="1" style="stop-color:#459CDD"/>
	</linearGradient>
	<path style="fill:url(#SVGID_00000018236648016119963240000011223118120312263554_);" d="M55,211.5c-8.1,0-15.6-1.4-22.4-4.2
		s-12.7-6.7-17.6-11.8s-8.7-11.2-11.4-18.3c-2.7-7.1-4.1-15-4.1-23.7v-36c0-4.3,3.5-7.8,7.8-7.8h95.4c4.3,0,7.8,3.5,7.8,7.8v36
		c0,8.7-1.4,16.6-4.1,23.7c-2.7,7.1-6.5,13.2-11.4,18.3c-4.9,5.1-10.7,9-17.5,11.8C70.6,210.1,63.1,211.5,55,211.5L55,211.5z
		 M55,189.7c6.1,0,11.5-0.8,16.4-2.5c4.8-1.7,8.9-4.1,12.3-7.2c3.3-3.1,5.9-6.9,7.7-11.4c1.8-4.5,2.7-9.5,2.7-15.1v-14.5
		c0-4.3-3.5-7.8-7.8-7.8H23.7c-4.3,0-7.8,3.5-7.8,7.8v14.5c0,5.6,0.9,10.6,2.7,15.1c1.8,4.5,4.4,8.3,7.7,11.4
		c3.3,3.1,7.4,5.5,12.3,7.2C43.5,188.8,48.9,189.7,55,189.7z"/>
</g>
<linearGradient id="SVGID_00000055666171512699296620000005917470462190413221_" gradientUnits="userSpaceOnUse" x1="-214.4" y1="-442.8216" x2="-239.66" y2="-442.9716" gradientTransform="matrix(-1 0 0 1 -154.99 584.03)">
	<stop  offset="0" style="stop-color:#459CDD"/>
	<stop  offset="1" style="stop-color:#F2BE4E"/>
</linearGradient>
<path style="fill:url(#SVGID_00000055666171512699296620000005917470462190413221_);" d="M56.6,141.1L56.6,141.1
	c0-0.9,0.7-1.6,1.6-1.6H85c0.9,0,1.6,0.7,1.6,1.6l0,0c0,0.9-0.7,1.6-1.6,1.6H58.2C57.3,142.8,56.6,142,56.6,141.1z"/>
<linearGradient id="SVGID_00000020365268439079885410000006038141473041248174_" gradientUnits="userSpaceOnUse" x1="32.08" y1="73.5415" x2="37.98" y2="73.5715" gradientTransform="matrix(1 0 0 -1 0 214.692)">
	<stop  offset="0" style="stop-color:#459CDD"/>
	<stop  offset="1" style="stop-color:#F2BE4E"/>
</linearGradient>
<circle style="fill:url(#SVGID_00000020365268439079885410000006038141473041248174_);" cx="34.9" cy="141.1" r="3.5"/>
</svg>
